<?xml version="1.0" encoding="utf-8"?>
<!-- Generator: Adobe Illustrator 24.1.0, SVG Export Plug-In . SVG Version: 6.00 Build 0)  -->
<svg version="1.1" id="Layer_1" xmlns="http://www.w3.org/2000/svg" xmlns:xlink="http://www.w3.org/1999/xlink" x="0px" y="0px"
	 viewBox="0 0 374.4 215.2" style="enable-background:new 0 0 374.4 215.2;" xml:space="preserve">
<style type="text/css">
	.st0{fill:#C2D500;}
	.st1{fill:#00583D;}
	.st2{fill:#FFFFFF;}
	.st3{fill:#FFC629;}
</style>
<g id="XMLID_9_">
	<path id="XMLID_97_" class="st0" d="M367.9,45.6l-107.4-29c0,0-37.1-9.1-56.3-11.8c-20.7-2.9-38.7-3.3-54.9-0.9
		C98.8,11,57.2,43,29.1,95.4c-7.8,12.3-16.2,49.1-18,82.8c-0.1,1,0.1,1.9,0.9,2.5c0.9,0.6,1.8,0.3,3-0.1c3-0.9,8.6-0.8,16.4,0.4
		c11.4,1.7,26.5,5.5,44,10c23.9,6.1,50.9,12.9,78.6,17c21.4,3.1,39.8,4.1,56.4,3c61.8-4.2,109.7-36.2,136.2-90.6
		c15.5-29.4,22.6-57.6,25-68.6C372.3,49,370.6,46.3,367.9,45.6z"/>
	<g id="XMLID_94_">
		<path id="XMLID_95_" class="st1" d="M171,190.3c-30.8,0-61.7-3.6-89-6.9c-20-2.4-37.3-4.2-50-4.4c-14.8-0.3-20.2,2.8-20.7,3.1
			c-1.1,0.6-1.8-1.8-1.8-3c0.3-52.4,13.7-90.4,40.8-115.9c22.7-21.4,55.5-34,100.2-38.7c11.6-1.2,23.2-1.8,35.3-1.8
			c24.7,0,47.3,2.5,67.2,4.8c17.3,1.9,33.6,3.8,48.9,3.8c17.1,0,31.3-2.3,44.5-7.1c1.1-0.4,2.3-0.2,3.2,0.5c0.9,0.7,1.4,1.8,1.3,3
			c-7.1,82.7-49.3,138.1-118.9,156C214.7,188.2,194.7,190.3,171,190.3z"/>
	</g>
	<path id="XMLID_91_" class="st2" d="M313.1,111.2c-0.8-0.3-1.5,0-2.1,0.8c-2.7,3.4-5.2,7-8,10.3c-2.8,3.3-6.1,6-9.9,7.9
		c-5.9,2.9-11.2,1.3-13.8-4.2c1.5-1.2,3-2.3,4.4-3.6c4.2-3.9,7.3-8.4,6.8-14.5c-0.3-3.8-2.4-6.6-6.1-7.4c-2.3-0.5-4.6-0.2-6.8,0.8
		c-4.8,2.3-7.6,6.5-9.1,11.4c-0.4,1.4-0.7,2.9-0.8,4.3c-0.3,6.1,0.6,10.4,2.6,13.6c-1,0.9-1.9,1.6-2.6,1.9c-3.5,1.4-5.4,0.9-7.4-1.9
		c-1.6-2.2-1.7-3.2-2-6c-0.4-5.1,0.2-10.3,0.9-15.6c0.3-2.4,0.7-4.9,1.1-7.4c0.9,0,1.7,0,2.4-0.1c2.6-0.3,5.1-0.4,7.7-0.9
		c1.8-0.3,2.2-1,2.4-3.1c-3.9,0-7.8,0.1-11.8,0.1c0.1-0.7,0.2-1.2,0.2-1.8c0.4-3.7,0.9-7.5,1.1-11.4c0.1-2-0.3-4.1-2.1-5.3
		c-2-1.4-4.4-1.5-6.5-1.4c-0.8,6.9-1.6,13.4-2.4,19.8c-3.1-0.3-5.8-0.6-8.5-0.9c-1.3,3.4-0.2,5.1,3,5.1c1.5,0,3.1-0.1,4.7-0.1
		c-0.4,3.3-0.8,6.5-1.1,9.6c-1.1,10.3,0.3,13.6,0.8,15.6c0.2,0.8,0.5,1.6,0.8,2.4c-1.9,1-4.4,2.1-7.6,3.7
		c-1.3-6.1-0.7-12.8-0.9-19.4c-0.1-3-0.1-6.1-0.6-9c-0.8-4.3-3.6-5.6-7.4-3.7c-2.8,1.4-4.8,4.1-6.6,6.9c-2.8,4.5-4.9,9.4-6.7,14.2
		c-0.2,0.4-0.4,0.9-0.7,1.7c-0.1-2.5-0.2-4.6-0.2-6.8c0-3.8,0.1-7.7,0-11.6c-0.1-3.1-1.8-4.8-4.1-3.8c-1.4,0.6-2.6,1.7-3.9,2.6
		c-0.7,0.5-0.7,1.2-0.7,2.1c0.3,3.5,0.9,23.2,1.1,25.7c0.4,5.2,2.7,6.9,6.8,5.4c0.8-0.3,1.5-0.6,1.6-1.8c1.2-7.9,3.9-15.7,7.5-23.4
		c1-2.1,2.2-4.2,3.5-6.1c1.2-1.7,2-1.5,2.3,0.5c0.1,0.7,0.1,1.5,0.1,2.2c-0.3,5.4-0.6,10.6-0.7,15.7c-0.1,3.6,0.2,7.1,1.5,10.2
		c1,2.2,2.5,3.3,4.9,3.1c3.1-0.4,5.9-2,8.5-4.2c1-0.8,2-1.7,3-2.7c2.8,5.8,8,8.4,14.8,6.3c1.7-0.5,3.6-2.3,5.3-4.5
		c6,6.7,16.6,5.6,23.5,1.6c6.2-3.5,10.8-8.8,15.1-14.7c1.6-2.2,2-3.6,3.3-6.1C314,112.4,314.1,111.5,313.1,111.2z M278.4,108.8
		c0.2-0.6,0.6-1.2,0.9-1.7c1.2-1.7,2.7-2.5,4.1-2.1c1.4,0.4,2.3,2,2.4,3.9c0.1,3.9-1.6,7-3.9,9.9c-1.1,1.3-2.5,2.7-3.8,4.2
		c-0.1-0.3-0.1-0.7-0.2-1C276.9,117.5,276.5,113.2,278.4,108.8z"/>
	<path id="XMLID_88_" class="st2" d="M204.9,111.4c0.2-1.5,0.2-2.7-0.5-3.9c-2.5-4.9-7.9-7.8-12.8-6.8c-5.6,1.2-9.8,4.9-12.9,10.3
		c-1,1.7-4,7-3.9,16.1v0c-2.6,2.4-5.5,4.4-8.8,5.5c-4.6,1.6-7.7,0-9.7-5.1c-1.3-3.1-1.6-6.4-1.5-9.9c0.1-3.4,0.7-6.7,2.3-9.6
		c2-3.7,6.4-5.7,9.7-0.8c0.7,1,1.4,2.1,2.1,3.3c1-0.7,2-1.3,2.9-2.1c0.8-0.7,1-1.6,0.6-2.8c-0.6-1.9-1.8-3.1-3.1-4
		c-4.8-3.4-9.8-3.3-14.6-0.4c-6.3,3.8-9.1,10.3-9.1,18.4c0,5.6,1.6,10.5,5.4,14.1c4.8,4.6,10.3,5.2,16,3.1c4.8-1.8,6.7-5,7.9-8.3
		c0.8,7,6.8,11.1,12.6,8.7c4.2-1.8,7.4-5.2,9.8-9.7c0.3-0.5,0.5-1,0.9-1.8c0,0.7,0.1,0.9,0.1,1.1c0.4,4,3.5,11.4,6.5,11.5
		c0.8,0.1,1.6-0.1,2.4-0.3c-1.2-2.9-3.4-7.2-3.7-15.1C203.4,119.1,204.3,115.2,204.9,111.4z M197.8,109.2
		c-1.5,6.6-3.7,12.5-7.1,17.7c-0.8,1.2-1.8,2.3-3,3.2c-1.9,1.4-3.4,0.7-4-1.8c-0.3-1-0.5-1.7-0.5-3.2c1-7.4,3.3-14.1,8.3-19.4
		c1-1,2.2-1.5,3.5-1.4C197.2,104.6,198.4,106.7,197.8,109.2z"/>
	<path id="XMLID_85_" class="st2" d="M97.3,113c-0.6-9.9-1.4-20.1-2.4-30.8c-0.3-3.5-1.2-7-3.1-10c-2-3.1-4.4-4.7-8.1-2.5
		c-3.5,2.1-6.4,4.8-9.1,7.9c-5.9,6.7-10.4,14-14.4,21.4c-1.7,3.2-3.5,6.4-4.9,9.8c-4-1.9-8.1-3.9-12.2-5.8c0.1,1.1,0.1,2.3,0.2,3
		c0.2,0.8,0.3,1.5,0.5,2.3c1.6,4.6,6.1,4.8,9.6,6.5c-0.1,0.4-3.3,9.9-5.2,18.9c-0.7,3.4-1.3,8.2-1,11.9c0.1,1.8,0.5,3.5,1.9,4.6
		c2.4,2.1,5.3,2.3,8.2,2.6c-0.1-1.8-0.4-3.5-0.3-5.1c0.2-3,0.3-6,0.7-8.9c1-7.3,2.5-14.4,4.5-21.4c0.1-0.3,0.5-0.6,0.7-0.5
		c7,1.6,16.1,1.1,20.2,0.9c1.9-0.1,3.8-0.6,5.8-0.9c0.1,0.7,0.1,1.4,0.2,2.1c0.1,2.5,0.2,5,0.4,7.4c0.3,3.3,0.9,6.5,2.5,9.4
		c2.8,5.1,8.5,5.8,11.9,1.7c-1.2-2.5-2.4-4.7-3.4-7.1C98,124.8,97.7,119,97.3,113z M88,83.1c0.3,7.6,0.5,14.8,0.7,21.9
		c0.1,2.4,0.1,4.7,0.1,7.2c-8.2,1.7-16.4,1.3-24.9-0.8c0.2-0.5,0.3-1,0.5-1.5c3-8.7,6.8-17.1,12.1-25.2c2.1-3.2,4.3-6.3,7.2-8.7
		c1.8-1.5,2.8-1.2,3.5,1.4C87.6,79.2,87.9,81.2,88,83.1z"/>
	<path id="XMLID_82_" class="st2" d="M127.7,88.4c1.2-4.6,2.2-9.3,1.7-14.5c-0.5-4.7-3.8-7.6-7.6-6.3c-1.6,0.5-3.1,1.5-4.4,2.7
		c-3.7,3.4-5.8,8.1-7.5,12.8c-2.9,7.7-4.3,15.4-4.4,23.2c-0.1,7.4,0.6,14.5,3,21.3c0.4,1.3,1,2.5,1.6,3.6c3.9,6.9,8.9,8.3,15.4,5.7
		c-2.3-2.5-4.7-5.7-5.6-7c-1.8-2.6-2.9-5.6-3.5-8.6c-0.5-2.9,0.3-5.1,1.4-7.5C121.6,105.9,125.2,97.8,127.7,88.4z M115.2,109.6
		c0-6.5-0.2-10.8,1.6-21.1c0.7-3.9,1.4-7.5,2.7-11.4c0.8-2.4,1.1-3.3,2-4.5c0.4-0.6,1.5-0.9,2.1-0.7c0.6,0.2,1.3,1.4,1.3,2.1
		c0.4,2.8,0.1,5.9-0.3,8.6c-1.6,9.8-4.5,17.9-8.4,25.7C116.1,108.4,115.4,109.6,115.2,109.6z"/>
	<path id="XMLID_81_" class="st0" d="M166.9,85.7c-1.7,3.6-4.6,6.4-8.7,7.9c-4,1.4-8.4,1.2-12.3-0.3c1.7-3.6,4.7-6.4,8.7-7.9
		C158.7,83.9,163,84.2,166.9,85.7z"/>
	<path id="XMLID_80_" class="st3" d="M157.6,49.4c2.9,7.7,3.1,16.3-0.3,24.1c-3.4,7.9-9.7,13.6-17.3,16.8
		c-2.9-7.7-3.1-16.3,0.3-24.1C143.7,58.4,150,52.6,157.6,49.4z"/>
	<g id="XMLID_10_">
		<path id="XMLID_79_" class="st2" d="M138.1,109.9c-1.7,11.1-1.9,18.5,4,26.3c0.8,1,1.3,1.5,0.8,1.6c-5.9,0.8-9.6-1.3-12-7.4
			c-0.4-1-0.7-2.1-0.9-3.2c-1.2-5.9-0.8-11.6,0.4-17.5c0-0.2,0.1-0.4,0.1-0.6c1.3-4,1.9-5.7,3.4-7.2c0,0,4-2.8,6.9-1.2
			C142.6,101.8,139.3,102.7,138.1,109.9z"/>
	</g>
</g>
</svg>
