<?xml version="1.0" encoding="UTF-8"?>
<svg xmlns="http://www.w3.org/2000/svg" width="317" height="115" viewBox="0 0 317 115" fill="none">
  <path fill-rule="evenodd" clip-rule="evenodd" d="M14.2526 11.0859C14.7196 11.4167 14.723 11.9319 14.7273 12.5721L14.7278 12.6496C14.7462 15.1948 14.7453 17.7405 14.7252 20.2866C14.7217 20.7111 14.6591 21.0257 14.5374 21.2305C13.9979 22.1404 12.5117 21.7544 12.509 20.6699C12.5029 17.8061 12.502 14.9423 12.5064 12.0785C12.5077 11.1424 13.4569 10.5214 14.2526 11.0859ZM38.3977 17.9287C37.3868 13.6749 40.0493 10.3534 44.5078 10.9402C46.1778 11.1599 47.3909 11.9157 48.1471 13.2076C49.4508 15.4329 49.1554 19.1903 46.9262 20.7763C45.57 21.7413 43.5035 21.9736 41.9031 21.543C40.0187 21.0362 38.8502 19.8315 38.3977 17.9287ZM41.3084 13.5423C40.1005 14.9458 40.1504 17.9182 41.4567 19.2297C42.4046 20.1816 44.0641 20.3037 45.1525 19.6105C46.9485 18.4656 47.131 15.1375 45.8759 13.6277C44.7744 12.3017 42.4834 12.1756 41.3084 13.5423ZM58.6213 13.2653C58.381 10.0107 50.1821 9.89385 50.6639 14.1397C50.8761 16.012 52.7623 16.5049 54.4127 16.9361C55.8568 17.3135 57.1204 17.6436 56.9237 18.8096C56.7386 19.9137 55.4533 20.1947 54.5395 20.1829C53.9452 20.1759 53.4363 19.9649 53.0127 19.5501C52.8272 19.3687 52.6841 19.0807 52.5375 18.7857C52.215 18.1368 51.8758 17.4543 51.0328 17.8C50.3252 18.0915 50.3278 18.8949 50.6153 19.4989C51.1274 20.5728 51.9553 21.2507 53.0993 21.5325C54.9872 21.9973 57.8086 21.7596 58.7959 19.8034C59.2606 18.8827 59.2663 17.975 58.8129 17.0805C58.2277 15.9272 56.8478 15.5652 55.5926 15.2359C55.4989 15.2113 55.406 15.1869 55.3141 15.1624C55.1606 15.1214 54.9952 15.0831 54.8247 15.0435C54.2532 14.9111 53.6235 14.7651 53.1846 14.4587C52.5203 13.994 52.5282 13.1655 53.2503 12.7349C54.1037 12.2268 55.7054 12.194 56.35 13.1695C56.3957 13.2384 56.4477 13.3264 56.5051 13.4236C56.7364 13.8148 57.0556 14.3549 57.4069 14.4023C58.2064 14.5086 58.6764 14.0228 58.6213 13.2653ZM64.7393 13.138C65.2172 11.0439 68.0898 10.7301 69.7794 10.9599C70.4928 11.0579 71.1374 11.3201 71.7133 11.7463C72.3527 12.2203 72.9894 13.3323 72.4301 14.074C72.2034 14.3743 71.8673 14.4837 71.4218 14.4023C71.0829 14.341 70.8526 13.9765 70.6025 13.5807C70.3382 13.1624 70.0517 12.7092 69.5917 12.5419C68.7633 12.2426 67.0539 12.345 66.7349 13.4124C66.4894 14.2342 67.5068 14.7095 68.2027 14.8736C68.3575 14.9103 68.5195 14.9472 68.6865 14.9853L68.6868 14.9854L68.6869 14.9854L68.6876 14.9856C70.0308 15.2917 71.6914 15.6703 72.4853 16.5856C73.1207 17.3182 73.3028 18.1921 73.0314 19.2074C72.3619 21.7124 69.0994 22.0826 66.9909 21.4997C65.7787 21.1645 64.9682 20.424 64.5594 19.2783C64.2758 18.4827 64.5909 17.6543 65.5546 17.7238C66.0811 17.7615 66.3845 18.4021 66.6219 18.9034C66.6988 19.0658 66.7688 19.2137 66.8373 19.3216C67.5344 20.4166 69.2582 20.3391 70.2114 19.7969C70.9833 19.3571 71.2446 18.379 70.5396 17.7278C70.071 17.2933 69.2557 17.1084 68.3821 16.9104C67.672 16.7494 66.9233 16.5796 66.2911 16.26C65.0491 15.6298 64.4071 14.5953 64.7393 13.138ZM88.463 11.0912C85.2005 11.9564 84.1791 15.4762 85.1086 18.3777C85.7296 20.3155 87.1633 21.4629 89.1628 21.6979C91.3054 21.95 93.3797 21.2818 94.3289 19.1995C94.5823 18.6429 94.6677 17.7724 94.0834 17.4613C93.4795 17.1396 92.9018 17.3681 92.6603 18.0245C92.1019 19.5352 91.0853 20.203 89.6105 20.028C88.3763 19.8809 87.544 19.1798 87.2328 17.9877C86.6158 15.6193 87.3917 11.8684 90.7737 12.6837C91.6863 12.9036 92.0763 13.5117 92.5396 14.2342L92.5776 14.2933C92.7762 14.604 92.9539 14.8005 93.1106 14.8828C94.0926 15.3974 94.7491 14.2828 94.3788 13.411C93.4309 11.1726 90.599 10.5253 88.463 11.0912ZM96.0501 17.0556C95.8099 14.1594 97.0532 11.4391 100.199 10.9875C104.933 10.3061 107.61 13.6513 106.505 18.1164C105.643 21.5929 101.646 22.4857 98.735 21.2003C97.1818 20.515 96.1906 18.765 96.0501 17.0556ZM100.597 12.6719C98.4382 13.1314 97.9945 15.7138 98.4002 17.4915C99.1813 20.9168 103.602 20.9299 104.349 17.5138C104.903 14.9839 103.744 12.0036 100.597 12.6719ZM113.868 11.015C112.137 10.6908 109.04 10.9507 108.549 13.1629C107.939 15.9089 110.559 16.5468 112.598 17.0434C112.944 17.1275 113.273 17.2076 113.567 17.2932C114.765 17.6424 115.272 19.0223 114.094 19.7732C113.478 20.1654 112.753 20.2844 111.919 20.1304C110.946 19.9506 110.643 19.3553 110.276 18.6354L110.276 18.6352C110.233 18.5509 110.19 18.4649 110.144 18.3777C109.739 17.6083 108.68 17.439 108.339 18.2713C108.052 18.9711 108.558 19.9164 109.046 20.4389C111.223 22.7705 117.623 22.0485 116.883 17.8079C116.549 15.8935 114.246 15.3708 112.317 14.9329C112.091 14.8816 111.87 14.8315 111.658 14.7804C110.652 14.5375 109.946 13.3822 111.119 12.7244C111.999 12.2308 113.528 12.2045 114.16 13.1577C114.198 13.216 114.246 13.2942 114.3 13.3832C114.532 13.7672 114.885 14.3514 115.179 14.3983C116.018 14.5322 116.539 14.0097 116.442 13.2062C116.301 12.0496 114.942 11.2172 113.868 11.015ZM5.35783 17.0766C5.34995 18.0998 5.34689 19.1221 5.34864 20.1435C5.34951 20.5837 5.31713 20.8909 5.25149 21.0651C5.00335 21.7189 4.18805 21.929 3.62877 21.5575C3.2546 21.3106 3.14169 20.8971 3.13775 20.4271C3.11149 17.8748 3.10712 15.3217 3.12462 12.7677C3.12987 11.9196 3.2139 11.0741 4.30753 11.0689C6.12105 11.0584 7.93457 11.0566 9.74809 11.0636C11.103 11.0676 11.1319 12.6942 9.68507 12.6982C8.26191 12.7034 6.83569 12.7043 5.40641 12.7008C5.39283 12.7008 5.3798 12.7062 5.3702 12.7158C5.3606 12.7254 5.3552 12.7384 5.3552 12.752L5.36439 15.316C5.36439 15.3248 5.36613 15.3335 5.36949 15.3417C5.37285 15.3498 5.37779 15.3572 5.384 15.3634C5.39022 15.3696 5.3976 15.3745 5.40573 15.3779C5.41385 15.3813 5.42256 15.383 5.43135 15.383C6.66808 15.3952 7.89825 15.4018 9.12185 15.4027C10.2956 15.404 10.3704 16.9466 8.99319 16.9755C7.8046 17 6.61469 17.0114 5.42347 17.0096C5.40606 17.0096 5.38937 17.0167 5.37706 17.0293C5.36474 17.0418 5.35783 17.0588 5.35783 17.0766ZM26.3573 14.5086C25.9844 12.8518 24.602 11.317 22.8756 11.1516C21.6003 11.0299 20.1071 11.0076 18.396 11.0846C17.4862 11.1253 17.2276 11.5875 17.217 12.475C17.1864 14.9537 17.186 17.4324 17.2157 19.9111C17.2328 21.3592 17.5492 21.5575 18.996 21.5653C20.5811 21.5741 21.6047 21.5701 22.0668 21.5535C25.9923 21.413 27.0925 17.7777 26.3573 14.5086ZM20.1536 19.8752C19.9258 19.8701 19.7065 19.8652 19.5041 19.8652C19.4946 19.8652 19.4852 19.8633 19.4765 19.8597C19.4677 19.856 19.4597 19.8507 19.453 19.844C19.4463 19.8373 19.441 19.8293 19.4374 19.8206C19.4337 19.8118 19.4319 19.8024 19.4319 19.7929L19.4306 12.8019C19.4306 12.7947 19.432 12.7876 19.4348 12.781C19.4376 12.7743 19.4417 12.7684 19.4468 12.7633C19.4519 12.7583 19.458 12.7544 19.4647 12.7518C19.4714 12.7491 19.4785 12.7479 19.4857 12.748C19.7224 12.7526 19.965 12.7509 20.2092 12.7493C21.9345 12.7375 23.7443 12.7251 24.1871 14.8999C24.4878 16.3808 24.3801 18.9448 22.764 19.6407C22.1176 19.9192 21.0675 19.8956 20.1536 19.8752ZM30.7213 16.9781V19.81C30.7213 19.8288 30.7286 19.8468 30.7417 19.8601C30.7547 19.8734 30.7724 19.8809 30.7909 19.8809C32.5992 19.8914 34.3995 19.8945 36.1921 19.8901C36.9614 19.8888 37.199 21.0454 36.5413 21.4144C36.3662 21.5124 36.0822 21.5618 35.6892 21.5627C33.6832 21.5653 31.6775 21.5653 29.6723 21.5627C28.9003 21.5618 28.5148 21.1465 28.5157 20.3168C28.52 17.6586 28.5222 15.0001 28.5222 12.3411C28.5222 11.1713 29.1918 11.0676 30.2119 11.0636C32.0771 11.0584 33.9427 11.0588 35.8087 11.0649C37.0809 11.0689 37.1505 12.6916 35.6512 12.6968C34.0293 12.7038 32.4053 12.7052 30.7791 12.7008C30.7724 12.7006 30.7658 12.7018 30.7596 12.7043C30.7534 12.7068 30.7477 12.7105 30.743 12.7153C30.7382 12.7201 30.7344 12.7258 30.7318 12.7321C30.7292 12.7384 30.7279 12.7451 30.7279 12.752L30.7371 15.2202C30.7371 15.2377 30.7439 15.2546 30.7562 15.2671C30.7685 15.2796 30.7852 15.2868 30.8027 15.2872C32.2845 15.295 33.7615 15.2985 35.2337 15.2977C35.5654 15.2977 35.8043 15.3344 35.9505 15.4079C36.456 15.6653 36.4415 16.5042 35.9439 16.7655C35.8021 16.8398 35.5737 16.8788 35.2586 16.8823C33.7689 16.9024 32.2784 16.9121 30.7869 16.9112C30.7695 16.9112 30.7528 16.9182 30.7405 16.9308C30.7282 16.9433 30.7213 16.9604 30.7213 16.9781ZM76.1561 11.0754C75.4773 11.0807 75.0309 11.5376 75.0309 12.2098V20.0358C75.0309 20.8931 75.2161 21.5575 76.181 21.5601C78.2414 21.5653 80.3013 21.5662 82.3607 21.5627C83.8023 21.5601 83.7524 19.8848 82.5472 19.8901C80.8028 19.8962 79.0536 19.8927 77.2996 19.8796C77.281 19.8792 77.2633 19.8718 77.2503 19.8588C77.2373 19.8457 77.23 19.8282 77.23 19.81V16.9519C77.23 16.9427 77.2318 16.9336 77.2354 16.9251C77.2389 16.9167 77.2441 16.909 77.2506 16.9026C77.2571 16.8963 77.2648 16.8913 77.2732 16.888C77.2816 16.8848 77.2906 16.8833 77.2996 16.8836C78.7928 16.9169 80.2855 16.9151 81.7778 16.8784C82.0824 16.8705 82.3039 16.8293 82.4421 16.7549C83.1104 16.3965 82.8439 15.295 82.11 15.2963C80.5161 15.299 78.9171 15.2959 77.3127 15.2871C77.2949 15.2868 77.2778 15.2796 77.2653 15.2671C77.2528 15.2546 77.2458 15.2377 77.2458 15.2202L77.2366 12.7507C77.2366 12.744 77.2379 12.7374 77.2405 12.7313C77.2431 12.7251 77.2469 12.7196 77.2517 12.7149C77.2564 12.7103 77.2621 12.7066 77.2683 12.7042C77.2745 12.7018 77.2811 12.7006 77.2878 12.7008C78.921 12.7052 80.5516 12.7038 82.1796 12.6968C83.6316 12.6916 83.5962 11.0807 82.3489 11.0728C80.2851 11.0579 78.2208 11.0588 76.1561 11.0754Z" fill="#373435"></path>
  <path fill-rule="evenodd" clip-rule="evenodd" d="M169.435 0H169.862C171.068 0.166735 171.164 1.50718 170.553 2.30804C169.741 3.3741 168.269 4.09749 167.07 4.63183C165.954 5.12941 164.589 5.79373 163.443 6.51844C152.11 13.6802 142.399 23.2366 134.678 34.2097C134.411 34.5895 134.11 35.0849 133.774 35.6958C132.898 37.2949 132.021 38.8931 131.143 40.4905L131.123 40.5274C130.592 41.4962 129.212 44.0104 127.903 43.9184C126.091 43.7924 126.576 41.6379 126.928 40.3881C127.533 38.2332 128.136 36.0779 128.736 33.9221C129.603 30.8055 130.641 27.6203 131.541 24.8589L131.541 24.8587L131.541 24.8586L131.686 24.4156C131.813 24.0226 131.886 23.6493 131.904 23.2957C131.906 23.2519 131.894 23.2476 131.868 23.2826C127.227 29.5069 122.367 35.7575 117.132 41.3451C113.773 44.9306 109.976 48.3428 105.796 51.1025C105.79 51.1063 105.783 51.1087 105.776 51.1095C105.769 51.1102 105.761 51.1094 105.755 51.107C105.748 51.1045 105.742 51.1006 105.737 51.0955C105.733 51.0904 105.729 51.0842 105.727 51.0775L105.054 48.8482C105.048 48.8293 105.048 48.8092 105.053 48.7902C105.058 48.7712 105.069 48.754 105.083 48.7406C111.498 42.6698 117.566 36.2718 123.286 29.5463C128.722 23.1544 133.61 17.091 137.949 11.3564C138.375 10.7945 138.868 10.6238 139.497 11.0308C140.504 11.6833 140.628 12.7638 140.043 13.7642C136.613 19.6446 133.475 25.5027 132.581 32.2679C132.58 32.2758 132.582 32.2839 132.586 32.2908C132.59 32.2976 132.596 32.303 132.603 32.3058C132.611 32.3087 132.619 32.309 132.627 32.3067C132.634 32.3043 132.641 32.2994 132.645 32.2929C137.851 24.4173 144.105 17.4915 151.405 11.5153C155.72 7.98361 161.053 3.81522 166.41 1.01879C167.34 0.533028 168.349 0.193431 169.435 0ZM198.071 17.9444C200.172 15.509 205.234 12.9148 208.484 13.6185C210.781 14.1161 210.692 16.6657 210.097 18.3829C208.49 23.0174 205.404 26.5556 201.21 29.0934C198.965 30.4509 195.136 31.4605 193.994 28.0562C192.952 24.9526 196.116 20.2131 198.071 17.9444ZM200.075 19.915C199.178 20.9076 194.966 25.6786 197.14 26.7276C198.413 27.342 200.817 26.1775 201.885 25.4685C202.49 25.0685 203.14 24.4878 203.836 23.7263C204.988 22.466 208.503 18.4459 207.075 16.7287C206.475 16.0066 205.061 16.579 204.382 16.902C202.836 17.6372 201.231 18.6337 200.075 19.915ZM182.573 27.8481C182.572 27.8457 182.571 27.8431 182.57 27.8405C182.57 27.8368 182.57 27.8329 182.57 27.8291C183.199 24.9635 183.83 22.0887 184.461 19.2048C184.966 16.8954 182.548 16.9269 182.193 18.5772C181.326 22.6078 180.461 26.6387 179.599 30.6701C179.52 31.0377 179.489 31.4119 179.674 31.6994C180.182 32.4898 181.525 32.8285 182.162 31.9331C185.918 26.6422 190.433 22.1119 195.706 18.3422C196.334 17.8919 196.719 17.4665 196.22 16.7326C195.541 15.7361 194.825 16.0604 194.001 16.6775C189.721 19.8862 185.929 23.6117 182.623 27.854C182.62 27.857 182.617 27.8594 182.613 27.8612C182.611 27.8623 182.609 27.8632 182.606 27.8637C182.6 27.8651 182.593 27.8643 182.587 27.8614C182.581 27.8586 182.576 27.8539 182.573 27.8481ZM165.521 34.358C163.306 34.463 160.209 34.186 159.286 31.7349C157.808 27.8146 161.728 23.536 164.718 21.6297C167.044 20.1461 169.995 19.7391 172.709 20.0608C174.126 20.2288 176.194 21.0481 175.658 22.911C175.257 24.304 173.475 25.5132 172.225 26.1696C169.065 27.8304 165.293 28.8991 161.79 28.2597C161.77 28.2563 161.75 28.2608 161.733 28.2724C161.717 28.284 161.706 28.3016 161.702 28.3214C161.256 30.9563 164.048 31.6719 165.986 31.8347C167.278 31.9436 168.469 31.5865 169.649 31.0719C171.342 30.3323 173.036 29.5927 174.731 28.8531L174.778 28.8324C175.485 28.5222 177.194 27.7726 177.204 28.9148C177.216 30.145 174.693 31.5366 173.671 32.0907C171.147 33.4622 168.43 34.218 165.521 34.358ZM170.311 21.9894C167.463 22.3662 164.89 23.897 163.317 26.3009C163.312 26.3076 163.309 26.3155 163.309 26.3236C163.308 26.3317 163.31 26.3399 163.313 26.3473C163.316 26.3547 163.322 26.3611 163.328 26.3658C163.335 26.3706 163.343 26.3735 163.351 26.3744C164.731 26.5153 166.072 26.3643 167.372 25.9215C168.721 25.462 171.052 24.665 171.705 23.3206C171.945 22.8253 171.893 22.4384 171.546 22.1601C171.214 21.8949 170.721 21.9356 170.311 21.9894ZM147.38 37.5811C151.754 34.6219 155.239 30.0675 157.846 25.5394C158.275 24.7937 159.471 21.9395 157.8 21.841C156.654 21.773 154.262 26.0735 152.915 28.496C152.755 28.7838 152.61 29.045 152.483 29.2693C151.203 31.5353 149.39 33.4534 147.044 35.0236C146.428 35.4372 145.354 35.9518 144.635 35.6919C143.909 35.4306 143.626 34.4867 143.74 33.783C144.014 32.1051 145.61 30.8054 146.882 29.8496C147.884 29.0973 148.819 27.8829 147.858 26.6527C145.626 23.7999 141.834 30.9642 141.236 32.2469C138.794 37.4748 142.552 40.8463 147.38 37.5811Z" fill="#006B3E"></path>
  <path d="M29.9664 110.287C30.0452 110.222 30.1437 110.111 30.2618 109.954C31.5161 108.277 32.9383 106.506 34.5287 104.642C36.119 102.777 41.5124 96.627 44.9004 93.7999C59.3211 80.4571 76.1377 70.2363 93.9692 62.061C100.759 58.9907 107.393 56.2822 113.868 53.9356C135.061 46.2562 156.939 40.6961 179.503 37.2555C210.213 32.5725 241.193 31.1953 272.225 31.7585C286.91 32.0246 301.575 32.6683 316.221 33.6898C316.226 33.69 316.231 33.6916 316.235 33.6942C316.239 33.6968 316.243 33.7005 316.245 33.7049C316.248 33.7093 316.249 33.7143 316.249 33.7195C316.249 33.7246 316.248 33.7297 316.246 33.7344C307.928 50.2259 299.61 66.7134 291.289 83.1971C289.121 87.4928 286.769 91.3684 283.884 94.8699C273.927 106.952 260.183 112.181 244.623 112.154C172.771 112.024 100.931 111.881 29.0513 111.748C28.9621 111.748 28.9433 111.712 28.9949 111.641L29.9664 110.287Z" fill="#006B3E"></path>
  <path fill-rule="evenodd" clip-rule="evenodd" d="M93.9692 62.061C92.8165 59.7679 91.4161 57.638 89.768 55.6713C76.9543 61.3823 64.675 68.0675 52.93 75.7268C52.1659 76.2257 51.4433 76.7202 50.7624 77.2103C44.5262 81.7069 38.7062 86.579 33.4363 92.1575C33.3956 92.2008 33.3353 92.2205 33.2814 92.2349C36.7159 94.0703 41.1666 94.4668 44.9004 93.7999C59.321 80.4571 76.1377 70.2363 93.9692 62.061ZM34.5287 104.642C31.1275 104.706 27.7595 104.409 24.4248 103.75L20.9785 110.249L29.9664 110.287C30.0452 110.222 30.1437 110.111 30.2618 109.954C31.5161 108.277 32.9383 106.506 34.5287 104.642Z" fill="#BDBFC1"></path>
  <path d="M89.768 55.6713C76.9544 61.3823 64.675 68.0675 52.93 75.7268C52.1659 76.2257 51.4434 76.7202 50.7624 77.2103C44.5263 81.7069 38.7063 86.579 33.4364 92.1574C33.3957 92.2008 33.3353 92.2205 33.2815 92.2349C30.6829 95.0226 25.8698 101.039 24.4248 103.75L20.9785 110.249L18.9881 113.989C18.982 114.001 18.9735 114.011 18.963 114.019C18.9525 114.027 18.9404 114.033 18.9276 114.036C18.9147 114.039 18.9013 114.039 18.8884 114.036C18.8755 114.033 18.8634 114.027 18.8529 114.019C7.50571 105.593 0.434562 92.8296 0 78.6007V76.8283C0.638059 56.5509 14.4679 40.3631 33.5506 34.5812C55.1908 28.0247 78.6322 35.9965 91.0691 55.0096C91.0736 55.0165 91.0767 55.0243 91.0779 55.0325C91.0792 55.0407 91.0787 55.049 91.0765 55.057C91.0742 55.0649 91.0703 55.0723 91.065 55.0787C91.0596 55.085 91.053 55.0901 91.0455 55.0936L89.768 55.6713Z" fill="#FC0A01"></path>
  <path fill-rule="evenodd" clip-rule="evenodd" d="M33.2815 92.2349C36.7159 94.0703 41.1666 94.4668 44.9004 93.7999C45.254 93.7596 45.6046 93.6975 45.952 93.6134C49.6622 92.7128 53.0245 90.9929 56.161 88.8477C60.1351 86.13 63.7967 82.9804 67.3677 79.7639C67.3739 79.7583 67.3815 79.7546 67.3896 79.753C67.3915 79.7526 67.3934 79.7524 67.3953 79.7523C67.4016 79.7518 67.408 79.7527 67.414 79.7549C67.4174 79.7561 67.4207 79.7578 67.4237 79.7597C67.4276 79.7623 67.431 79.7654 67.434 79.7691C67.4392 79.7755 67.4427 79.7832 67.4439 79.7915C68.271 86.8219 61.3849 94.7885 56.0494 98.6181C50.0338 102.936 41.743 104.366 34.5287 104.642C31.1275 104.706 27.7595 104.409 24.4248 103.75C24.0852 103.651 23.7443 103.559 23.402 103.474C16.046 101.635 12.2295 95.7692 12.1783 88.3567C12.1533 84.8447 13.0001 81.166 14.2605 77.8274C18.442 66.7415 26.037 57.2835 36.9588 52.2867C42.5543 49.7266 48.6224 48.3546 54.8048 47.6128C57.936 47.2373 61.1368 47.3043 64.0487 48.4911C68.8972 50.467 70.0473 54.9991 68.4364 59.7373C66.731 64.7498 62.447 69.6048 56.7176 69.6022C56.7114 69.602 56.7053 69.6002 56.7001 69.5969C56.6948 69.5937 56.6905 69.5891 56.6876 69.5837C56.6848 69.5783 56.6835 69.5722 56.6839 69.5663C56.6842 69.5625 56.6851 69.5589 56.6867 69.5555L56.6882 69.5525L56.6901 69.5497C58.5123 66.9003 65.1726 57.1128 57.7325 56.4052C47.5629 55.4363 36.2499 63.1731 31.7375 72.031C28.7061 77.981 25.5302 88.0022 33.2815 92.2349ZM189.375 104.379C188.855 104.371 188.349 104.369 187.858 104.374C187.85 104.374 187.842 104.372 187.834 104.368C187.827 104.365 187.82 104.36 187.815 104.353C187.81 104.347 187.806 104.339 187.804 104.331C187.803 104.326 187.802 104.321 187.802 104.316L187.803 104.311L187.803 104.307L197.171 55.2656C197.175 55.2441 197.185 55.2244 197.2 55.2088C197.215 55.1932 197.235 55.1823 197.256 55.1776L211.306 51.9283C211.316 51.9259 211.327 51.9261 211.336 51.9288C211.346 51.9315 211.355 51.9367 211.363 51.9438C211.37 51.951 211.376 51.9599 211.379 51.9698C211.382 51.9797 211.383 51.9902 211.381 52.0005L201.711 104.496C201.708 104.508 201.702 104.52 201.692 104.528C201.682 104.536 201.67 104.54 201.657 104.541C197.563 104.495 193.469 104.441 189.375 104.379ZM208.362 104.404C209.122 104.443 209.882 104.467 210.642 104.475L222.197 104.596C222.215 104.596 222.233 104.59 222.247 104.578C222.261 104.567 222.271 104.551 222.274 104.533L231.941 52.0622C231.943 52.0507 231.942 52.0389 231.939 52.0278C231.935 52.0168 231.929 52.0068 231.92 51.9988C231.912 51.9909 231.901 51.9852 231.89 51.9822C231.879 51.9793 231.867 51.9793 231.856 51.9821L217.801 55.28C217.785 55.284 217.771 55.2923 217.759 55.304C217.748 55.3156 217.741 55.3301 217.738 55.3457L208.308 104.336C208.306 104.344 208.306 104.352 208.308 104.36C208.31 104.368 208.314 104.376 208.319 104.382C208.324 104.389 208.331 104.394 208.338 104.398C208.345 104.401 208.353 104.404 208.362 104.404ZM125.107 75.0257L120.193 75.1399C120.179 75.1402 120.166 75.1375 120.153 75.1318C120.141 75.1262 120.13 75.1179 120.121 75.1075C120.113 75.0972 120.107 75.085 120.104 75.0719C120.1 75.0589 120.1 75.0453 120.103 75.0323L121.404 69.1768C121.408 69.16 121.418 69.1449 121.431 69.1339C121.445 69.123 121.462 69.1168 121.479 69.1164L126.464 68.9983C126.486 68.9975 126.506 68.9897 126.523 68.9762C126.54 68.9627 126.551 68.9442 126.556 68.9235L127.806 63.282C127.811 63.2578 127.824 63.2358 127.842 63.2185C127.86 63.2013 127.883 63.1896 127.907 63.1849L141.649 60.6418C141.658 60.6403 141.667 60.641 141.676 60.6439C141.684 60.6468 141.692 60.6517 141.698 60.6584C141.705 60.665 141.709 60.6731 141.712 60.6819C141.714 60.6907 141.714 60.6999 141.712 60.7088L139.798 68.8618C139.797 68.8645 139.797 68.8672 139.797 68.87C139.796 68.8721 139.796 68.8742 139.796 68.8763L139.797 68.8814C139.797 68.8835 139.797 68.8855 139.798 68.8876C139.8 68.8961 139.803 68.904 139.809 68.9109C139.814 68.9177 139.821 68.9232 139.829 68.927C139.837 68.9307 139.846 68.9327 139.854 68.9326L148.061 68.8841C148.07 68.8841 148.079 68.8861 148.088 68.8901C148.09 68.8913 148.093 68.8926 148.095 68.8941L148.099 68.8972C148.101 68.8984 148.102 68.8998 148.104 68.9012C148.106 68.903 148.108 68.905 148.109 68.907C148.115 68.9142 148.119 68.9226 148.121 68.9316C148.123 68.9405 148.123 68.9499 148.121 68.9589L146.87 74.8393C146.866 74.8601 146.854 74.8788 146.838 74.8922C146.822 74.9056 146.802 74.9129 146.781 74.9128L138.576 74.9745C138.554 74.9746 138.534 74.982 138.517 74.9953C138.501 75.0087 138.489 75.0273 138.485 75.048C137.299 80.4877 136.12 85.9252 134.947 91.3605C134.793 92.0747 134.732 92.6362 134.764 93.045C134.91 94.8594 136.093 96.4046 137.895 96.8786C139.758 97.3683 141.971 96.5398 143.603 95.5644C143.604 95.5633 143.606 95.5623 143.608 95.5616C143.613 95.5595 143.619 95.5585 143.624 95.5587C143.632 95.5591 143.639 95.5617 143.646 95.5663C143.648 95.5682 143.65 95.5703 143.652 95.5727C143.654 95.5741 143.655 95.5757 143.656 95.5774C143.657 95.5797 143.659 95.5821 143.66 95.5846C143.662 95.592 143.663 95.6 143.662 95.6077L142.414 101.608C142.411 101.623 142.405 101.637 142.396 101.65C142.387 101.663 142.375 101.673 142.362 101.681C138.358 104.036 133.679 105.288 128.997 104.541C124.635 103.845 119.715 100.331 120.829 95.2453C122.3 88.533 123.744 81.8159 125.163 75.094C125.164 75.0899 125.164 75.0858 125.164 75.0817C125.164 75.0774 125.164 75.073 125.163 75.0687C125.161 75.0605 125.157 75.0527 125.151 75.0462C125.15 75.0441 125.148 75.0422 125.146 75.0404C125.144 75.0389 125.143 75.0376 125.141 75.0363C125.138 75.0342 125.135 75.0323 125.131 75.0308C125.124 75.0273 125.115 75.0255 125.107 75.0257ZM72.01 91.4748C73.1036 101.677 85.6062 103.965 93.6082 104.051C102.496 104.147 110.336 97.3998 114.34 89.9768C116.233 86.4688 116.9 82.3306 116.257 78.4431C115.155 71.7829 109.361 67.5357 102.86 67.0776C97.6991 66.7139 92.3229 68.078 87.6963 70.3033C79.8413 74.0831 70.9689 81.7529 72.01 91.4748ZM102.506 86.0158C102.05 89.2717 100.406 92.1496 98.047 94.4694C96.6764 95.8164 94.9617 96.9298 93.0804 97.1267C90.2406 97.4247 88.1755 95.4777 87.1239 92.9701C86.1077 90.5492 85.7532 88.0258 86.0604 85.4001C86.6158 80.6566 91.8056 73.7155 97.1214 74.0489C102.513 74.389 103.036 82.2163 102.506 86.0158ZM257.98 90.6857C254.757 98.2466 248.94 105.028 240.128 105.617C234.303 106.007 230.568 102.528 229.695 96.8602C227.833 84.7817 235.578 77.0791 245.683 72.3186C251.714 69.4775 258.28 68.6123 263.565 73.5973C263.568 73.5999 263.572 73.6021 263.575 73.6038C263.578 73.6054 263.582 73.6065 263.585 73.6073C263.592 73.6088 263.6 73.6085 263.607 73.6062C263.614 73.604 263.621 73.5999 263.626 73.5944C263.631 73.589 263.635 73.5823 263.636 73.575L264.352 70.2941C264.357 70.2728 264.367 70.2533 264.383 70.2377C264.398 70.2222 264.417 70.2112 264.439 70.2061L277.012 67.092C277.017 67.0908 277.022 67.0903 277.028 67.0905C277.032 67.0907 277.037 67.0914 277.042 67.0927C277.051 67.0954 277.06 67.1005 277.067 67.1075C277.072 67.1117 277.075 67.1167 277.078 67.122C277.08 67.1253 277.081 67.1289 277.082 67.1325C277.085 67.142 277.085 67.152 277.083 67.1616C274.551 78.8033 272.019 90.4385 269.487 102.067C269.478 102.106 269.472 102.14 269.467 102.17C269.445 102.304 269.434 102.371 269.262 102.456C264.888 104.61 259.946 104.724 255.214 103.829C255.206 103.827 255.198 103.824 255.191 103.819C255.184 103.815 255.178 103.809 255.173 103.802C255.168 103.794 255.165 103.786 255.164 103.778C255.163 103.773 255.163 103.768 255.163 103.763C255.163 103.759 255.164 103.756 255.164 103.753L258.026 90.7002C258.028 90.6941 258.028 90.6875 258.025 90.6818C258.022 90.6761 258.017 90.6719 258.011 90.67C258.009 90.6693 258.006 90.6689 258.004 90.6689C258 90.6688 257.996 90.6697 257.992 90.6716C257.987 90.6745 257.982 90.6796 257.98 90.6857ZM241.631 93.0134C243.091 94.8777 245.945 93.8799 247.659 93.041C251.771 91.0284 255.017 87.9917 257.583 84.0478C258.455 82.7069 259.062 81.3004 259.404 79.8282C259.716 78.4812 259.473 75.9342 257.718 75.6178C255.149 75.157 251.558 76.6799 249.386 78.1832C248.756 78.6199 248.098 79.1941 247.412 79.9057C245.062 82.3411 238.761 89.3505 241.631 93.0134ZM146.75 95.5762C148.182 99.5989 151.597 102.131 155.461 103.59C164.769 107.105 174.77 106.871 182.504 100.016C182.567 99.9618 182.61 99.8881 182.628 99.8063L183.925 93.7605C183.927 93.75 183.926 93.7391 183.922 93.7292C183.918 93.7193 183.911 93.7108 183.902 93.7047C183.894 93.6985 183.883 93.6951 183.873 93.6948C183.862 93.6944 183.851 93.6972 183.842 93.7027C178.337 97.2068 170.574 100.463 164.241 96.9573C161.807 95.6103 159.843 93.4612 158.379 91.0822C158.374 91.0751 158.372 91.0668 158.372 91.0583C158.372 91.0498 158.374 91.0414 158.379 91.0341C158.383 91.0268 158.39 91.0207 158.397 91.0167C158.405 91.0127 158.414 91.0108 158.422 91.0113C168.345 91.5706 178.243 89.7024 183.446 80.2877C184.27 78.7946 184.485 77.2554 184.089 75.6703C183.161 71.9602 178.815 69.4841 175.378 68.7239C173.593 68.33 171.509 68.3904 169.616 68.46C157.703 68.8972 147.262 75.9277 146.084 88.3934C145.853 90.8407 145.938 93.301 146.75 95.5762ZM169.072 83.8286C166.613 85.2228 162.857 85.2675 160.104 84.8671C160.097 84.866 160.09 84.8635 160.084 84.8595C160.078 84.8556 160.072 84.8503 160.068 84.8442C160.064 84.838 160.061 84.831 160.06 84.8236C160.059 84.8163 160.059 84.8087 160.061 84.8014C160.724 82.1691 161.837 79.8558 163.889 78.0624C165.612 76.5552 167.921 75.2817 170.28 75.4314C171.174 75.4879 171.808 75.7373 172.201 76.5867C173.527 79.458 171.522 82.4409 169.072 83.8286Z" fill="#FEFEFE"></path>
</svg>
